PathFileType	4	(X/Y/Z)	pose_F01_0-96.trc
DataRate	CameraRate	NumFrames	NumMarkers	Units	OrigDataRate	OrigDataStartFrame	OrigNumFrames
30	30	6	21	m	30	60	96
Frame#	Time	CHip			RHip			RKnee			RAnkle			RBigToe			RSmallToe			RHeel			LHip			LKnee			LAnkle			LBigToe			LSmallToe			LHeel			Neck			Nose			RShoulder			RElbow			RWrist			LShoulder			LElbow			LWrist			
		X1	Y1	Z1	X2	Y2	Z2	X3	Y3	Z3	X4	Y4	Z4	X5	Y5	Z5	X6	Y6	Z6	X7	Y7	Z7	X8	Y8	Z8	X9	Y9	Z9	X10	Y10	Z10	X11	Y11	Z11	X12	Y12	Z12	X13	Y13	Z13	X14	Y14	Z14	X15	Y15	Z15	X16	Y16	Z16	X17	Y17	Z17	X18	Y18	Z18	X19	Y19	Z19	X20	Y20	Z20	X21	Y21	Z21	
60	2.0	-0.16549922225378377	1.8246877349737716	-0.5134347322134472	-0.17830741268274247	1.8232123796869648	-0.454565327367031	-0.16322741411881964	1.7023076626488414	-0.4372473765011927													-0.1508215413964994	1.8265527855297636	-0.5693110384993346	-0.14248640141534413	1.7039363227725615	-0.54569944096995	-0.14027066772877197	1.5799027630319242	-0.519668256536214	-0.18044632355609713	1.548108518765944	-0.539559477923068	-0.1689539697351139	1.550390190679713	-0.5507422106459963	-0.1304995592895175	1.5629855926371916	-0.5150362558812124	-0.1543927368717623	1.9766522419860169	-0.5375495264829036	-0.1836856107620044	2.0397780508408485	-0.5512819608857062	-0.17184401372813557	1.972445976413148	-0.44872416830713335	-0.18543255102832404	1.8920327718061984	-0.3972834665010264	-0.20038754319901234	1.8217655938788797	-0.3641473075631626	-1.7247561933716964	1.889698671018784	1.1343895831171456	-0.11985336755570473	1.8979254934700058	-0.6387673105512699	-0.11750817229893826	1.8206294683942887	-0.6364246846612139
61	2.033333333333333	-0.1643805104525369	1.82564775160647	-0.5106554002868847	-0.17616349539807857	1.824526536632142	-0.45705616328390175	-0.16204069063930182	1.7033013059906297	-0.43428507084001905													-0.1483743005348206	1.8286650148675834	-0.5718799028937519	-0.1422744868585532	1.7052174047568176	-0.5460879166986492	-0.13904480370508226	1.580978018197284	-0.516920049525644	-0.17964868049969154	1.5491676366085818	-0.5360077653054469	-0.16888795403152687	1.5502864662126368	-0.5506601698441779	-0.13021556630205885	1.564033403914048	-0.5155137105962881	-0.15439452315386398	1.976583606406909	-0.5375968039908569	-0.18369226116793644	2.039786225210495	-0.5512258091439507	-0.17259573145972415	1.973646356839674	-0.45192618344410623	-0.18608797760721527	1.8957045391043403	-0.3920591454979593	-0.20740078876012985	1.8281098547966579	-0.3472858641257055	-1.7247744532902187	1.8896795373787496	1.134431797645788	-0.1157003622813524	1.8975251433581803	-0.6416504051825418	-0.10245970881641987	1.827300465990918	-0.6690261115724878
62	2.066666666666667	-0.16475071045277712	1.826092411768336	-0.5103979882423157	-0.17744538738592924	1.8247629124782976	-0.45145424417586594	-0.1632193246545535	1.7024712730277096	-0.43727311075847286													-0.15007071505507322	1.8273889641163459	-0.5661429965135037	-0.1415925110328742	1.7040687445865341	-0.5423665088810727	-0.13901016702271382	1.5809674544908918	-0.5169543845024382	-0.1827150164496726	1.5492310128240672	-0.5370528702674198	-0.16872542372193283	1.5517797353798857	-0.5512765670680244	-0.1305039967342641	1.5631810793831489	-0.5149920069911368	-0.15429313066196326	1.977644298697363	-0.5376507097641113	-0.1836992455850858	2.0397322932446524	-0.5512270117741668	-0.17262169143395514	1.9736489771196681	-0.4519594654710133	-0.19147295564116867	1.8974955180244542	-0.38541088956237624	-0.20927828300968296	1.8315391889393997	-0.32212460593948733	-1.7227875066491658	1.8877970239576163	1.1317285815910931	-0.1122405307455402	1.9044349798053395	-0.6503703932548542	-0.09621013979738821	1.8358815173933543	-0.6929936580228722
63	2.1	-0.16477530282329492	1.8263202815606656	-0.5104072567125801	-0.17745344374273186	1.825014608501694	-0.4514523032774081	-0.16319389861707953	1.7023585176167944	-0.437302320007939													-0.14995395589558524	1.8288945801284442	-0.566401226808055	-0.14160546115597014	1.7038922515540464	-0.5423633690129452	-0.14023992909755625	1.579799386351273	-0.5195590449241423	-0.1805196732726742	1.5489237474015376	-0.5392576453788623	-0.16885779920683844	1.550205006844622	-0.5507544767246684	-0.13049951551696948	1.5628330019278838	-0.5149040195212723	-0.1562724766147641	1.9776467811966725	-0.5354483179330078	-0.1836897266435431	2.039797836437728	-0.5512262546420382	-0.1746069466285972	1.9736313777686694	-0.44976400027597385	-0.1905745686555397	1.901750129673786	-0.38294656346000544	-0.2087905428274687	1.8367672933357255	-0.31396879301795744	-1.7343755307822784	1.8898448317467036	1.1515212720558556	-0.11205973083139427	1.9091947108202676	-0.6627907384043092	-0.09793605123806011	1.8473078961247988	-0.7163575409558725
64	2.1333333333333333	-0.16669387198456964	1.8259412349178283	-0.5081899418256947	-0.17746924082862153	1.824685839906669	-0.451300819290309	-0.16224590744194642	1.7023610027325249	-0.4340252286197743													-0.15196027427295675	1.828562235503162	-0.5641426564740231	-0.14255868911161532	1.7040979025769574	-0.5457423362131577	-0.14025285213997707	1.5796550445322737	-0.5195707972306053	-0.18050970160298352	1.5483194778613856	-0.5395061367485491	-0.16909969352384083	1.5507365095220653	-0.5506884484970075	-0.1325634528670307	1.5629457545135335	-0.512742314970437	-0.15629130379779466	1.977564825990634	-0.5355184881078396	-0.1837112933056906	2.039695268556247	-0.5512189853819031	-0.17465117671451186	1.9749760232402942	-0.4502724245489616	-0.19089177180452274	1.9070784586566791	-0.3841196727931194	-0.2092333151508742	1.8402109260955557	-0.31415170728589037	-1.72293557858723	1.8879348399856049	1.1319517555086842	-0.11382995777675889	1.911640933118601	-0.6697952467378014	-0.09758270438308253	1.8508212363207044	-0.7256530267420949
65	2.1666666666666665	-0.16473561706900944	1.8288007229807337	-0.5109013028275262	-0.17834936594144696	1.82738714619111	-0.4552316856387549	-0.16347599670539503	1.7041831786174668	-0.4373588884490976													-0.15089811634770578	1.8303398757772351	-0.5696579799674865	-0.14274971445422938	1.7053452076528974	-0.5455832623761415	-0.1393046611262846	1.5796955398965267	-0.5163176127835849	-0.18076500407499577	1.549503483071533	-0.5391837496825936	-0.16905990330049234	1.5506249942261021	-0.5506344636261796	-0.1305824122876241	1.5634180351151545	-0.5149452595749441	-0.15630790637799932	1.977627964348413	-0.5354953377485597	-0.1837905786218565	2.038582398712134	-0.5513043631530846	-0.1746683197869922	1.9750560513555355	-0.4502644157236063	-0.1893128385316258	1.9069743823082177	-0.3864857541676956	-0.20709150751950592	1.8404421178267047	-0.31322680238950096	-1.7345103460582358	1.889768592094528	1.1517587718363573	-0.11631290257190716	1.91237087660268	-0.6679361616076699	-0.10086229833278133	1.8500151746923177	-0.7229498348813554
